<?xml version="1.0" encoding="utf-8"?>
<!-- Generator: Adobe Illustrator 27.8.0, SVG Export Plug-In . SVG Version: 6.00 Build 0)  -->
<svg version="1.1" id="Layer_1" xmlns="http://www.w3.org/2000/svg" xmlns:xlink="http://www.w3.org/1999/xlink" x="0px" y="0px"
	 viewBox="0 0 297.73 35.22" style="enable-background:new 0 0 297.73 35.22;" xml:space="preserve">
<path d="M17.56,0c5.12,0.05,9.66,2.5,12.98,7.24c0.44,0.63,0.96,1.29,0.01,1.94c-1.12,0.77-1.72,0.69-2.46-0.32
	c-4.44-6-11.56-7.73-18.04-4.13c-3.8,2.12-5.97,5.62-6.73,9.88c-0.74,4.14-0.04,8.09,2.29,11.66c5.16,7.9,16.88,8.11,22.45,0.16
	c0.73-1.04,1.33-1.13,2.45-0.41c1.04,0.66,0.48,1.39,0.05,2.06c-3.32,5.13-10.02,7.81-16.14,6.99C6.59,34.02,0.94,27.39,0.15,20.04
	c-0.8-7.41,1.67-13.32,7.8-17.57C10.59,0.64,13.67,0.03,17.56,0z"/>
<path d="M77.19,21.89c0,2.51,0,4.83,0,7.16c0,1.48-0.05,2.97,0.02,4.45c0.04,1.08-0.3,1.53-1.45,1.49c-1.06-0.03-1.54-0.31-1.5-1.46
	c0.07-2.2,0.02-4.41,0.02-6.61c0-8.31,0-16.62,0-24.93c0-1.67,0.03-1.7,1.71-1.7c3.73,0,7.47-0.08,11.19,0.02
	c4.34,0.12,7.99,1.72,10.03,5.78c3.55,7.08-0.72,15.5-9.39,15.79C84.36,21.99,80.88,21.89,77.19,21.89z M77.27,18.93
	c3.72,0,7.33,0.23,10.9-0.06c5.16-0.42,8.12-4.83,6.94-9.85c-0.79-3.35-3.93-5.77-7.58-5.8c-3.01-0.02-6.02,0.04-9.03-0.03
	c-1.11-0.03-1.33,0.39-1.32,1.4c0.05,4.41,0.02,8.82,0.02,13.23C77.19,18.23,77.25,18.64,77.27,18.93z"/>
<path d="M116.71,18.65c3.59,0,6.79,0,10.07,0c0,0.98,0,1.8,0,2.81c-0.48,0-0.93,0-1.38,0c-3.14,0-6.28,0.04-9.42-0.01
	c-0.98-0.02-1.62,0.23-2.23,1.07c-2.05,2.8-4.21,5.52-6.32,8.28c-0.22,0.29-0.39,0.61-0.76,1.17c0.71,0,1.15,0,1.59,0
	c6.37,0,12.73-0.01,19.1,0.01c0.86,0,1.86-0.14,1.87,1.26c0.01,1.46-0.17,1.72-1.65,1.72c-7.73,0.01-15.45,0.02-23.18-0.02
	c-0.65,0-1.83-0.24-1.86-0.49c-0.11-0.85-0.09-1.94,0.36-2.61c1.6-2.34,3.41-4.54,5.14-6.8c0.84-1.1,1.66-2.21,2.68-3.56
	c-1.89,0-3.46,0-5.12,0c0-0.99,0-1.81,0-2.82c2.01,0,3.99-0.05,5.97,0.02c0.95,0.03,1.54-0.27,2.12-1.04
	c3.75-4.98,7.6-9.89,11.31-14.89c0.86-1.16,1.89-1.04,2.93-0.81c1.11,0.24,0.76,0.98,0.26,1.64c-2.34,3.06-4.67,6.13-7.01,9.19
	C119.79,14.63,118.38,16.47,116.71,18.65z"/>
<path d="M253.17,1.13c1.37-0.64,1.72,0.28,2.1,1.24c3.66,9.17,7.33,18.34,11,27.51c0.2,0.51,0.43,1.01,0.75,1.74
	c0.71-1.57,1.35-2.97,1.96-4.38c1.65-3.81,3.27-7.64,4.94-11.44c0.39-0.88,0.43-1.62,0.02-2.53c-1.67-3.76-3.26-7.55-4.87-11.33
	c-0.11-0.26-0.19-0.54-0.28-0.81c1.27-0.59,1.71,0.17,2.11,1.1c1.35,3.16,2.72,6.31,4.09,9.46c0.06,0.15,0.16,0.28,0.36,0.62
	c0.27-0.54,0.48-0.92,0.65-1.32c1.3-2.99,2.63-5.98,3.87-8.99c0.41-0.98,0.97-1.28,2.06-0.88c-0.87,2.03-1.73,4.05-2.6,6.06
	c-0.94,2.18-1.9,4.35-2.79,6.55c-0.17,0.42-0.22,1.03-0.05,1.43c2.26,5.3,4.57,10.58,6.88,15.86c0.05,0.11,0.13,0.21,0.35,0.53
	c0.28-0.64,0.52-1.15,0.72-1.67c3.74-9.28,7.49-18.55,11.2-27.84c0.39-0.99,0.93-1.33,2.08-0.91c-0.44,1.09-0.88,2.16-1.31,3.24
	c-3.85,9.55-7.69,19.11-11.55,28.65c-0.22,0.55-0.29,1.23-1.21,1.22c-0.89,0-1.01-0.62-1.26-1.19c-2.15-5.03-4.3-10.06-6.45-15.08
	c-0.16-0.37-0.33-0.72-0.65-1.4c-1.34,3.11-2.54,5.89-3.74,8.68c-1.17,2.72-2.32,5.46-3.55,8.16c-0.16,0.36-0.68,0.72-1.06,0.76
	c-0.3,0.03-0.83-0.37-0.96-0.7c-4.27-10.62-8.5-21.25-12.73-31.89C253.21,1.44,253.2,1.28,253.17,1.13z"/>
<path d="M146.22,19.85c1.4-2.49,2.71-4.79,4-7.1c2.21-3.95,4.41-7.91,6.61-11.86c0.33-0.6,2.59-0.97,2.94-0.4
	c0.21,0.34,0.1,1.06-0.12,1.46c-1.53,2.84-3.12,5.64-4.69,8.44c-2.34,4.18-4.7,8.35-7.03,12.53c-0.21,0.38-0.27,0.88-0.27,1.33
	c-0.02,3.1-0.06,6.2,0.01,9.29c0.02,1.16-0.44,1.45-1.5,1.43c-1.04-0.02-1.56-0.28-1.54-1.44c0.05-3.01,0.06-6.03-0.02-9.04
	c-0.02-0.8-0.28-1.67-0.66-2.37c-2.64-4.83-5.35-9.62-8.04-14.42c-1.08-1.92-2.18-3.82-3.23-5.76c-0.71-1.3-0.47-1.62,0.95-1.71
	c1.05-0.07,1.67,0.24,2.21,1.23c3.18,5.79,6.45,11.54,9.7,17.3C145.71,19.1,145.93,19.4,146.22,19.85z"/>
<path d="M248.1,18.74c-0.06,7.2-5.24,13.87-12.8,15.49c-8.76,1.88-17.26-3.61-19.04-12.41c-1.3-6.39-0.01-12.12,4.73-16.84
	c7.09-7.06,19.75-5.22,24.63,3.53C247.22,11.39,248.1,14.44,248.1,18.74z M232.09,32.99c2.89,0.02,5.74-0.78,8.23-2.67
	c5.89-4.47,7.73-13.1,4.4-19.97c-4.84-9.99-17.89-10.53-23.89-2.78c-2.86,3.7-3.73,7.92-3.15,12.48
	C218.59,27.2,224.07,33.1,232.09,32.99z"/>
<path d="M40.17,31.97c0.64,0,1.1,0,1.56,0c5.09,0,10.19,0.02,15.28-0.02c1.12-0.01,1.57,0.33,1.57,1.53c0,1.21-0.43,1.51-1.57,1.5
	c-6.03-0.04-12.06-0.04-18.08,0c-1.18,0.01-1.67-0.34-1.66-1.6c0.04-10.49,0.02-20.97,0.02-31.46c0-1.47,0.94-2.13,2.32-1.58
	c0.24,0.1,0.46,0.46,0.53,0.74c0.09,0.36,0.03,0.76,0.03,1.14c0,9.3,0,18.59,0,27.89C40.17,30.66,40.17,31.2,40.17,31.97z"/>
<path d="M66.42,17.76c0,5.22-0.02,10.44,0.01,15.66c0.01,0.99-0.11,1.61-1.35,1.57c-1.15-0.03-1.54-0.44-1.54-1.6
	c0.03-10.53,0.03-21.06,0-31.58c0-1.18,0.43-1.55,1.57-1.57c1.26-0.03,1.33,0.63,1.33,1.6C66.41,7.14,66.42,12.45,66.42,17.76
	C66.42,17.76,66.42,17.76,66.42,17.76z"/>
<path d="M194.23,32.64c6.14,0,12.15,0,18.25,0c0,0.54,0,0.98,0,1.51c-6.59,0-13.18,0-19.85,0c-0.03-0.43-0.07-0.8-0.07-1.17
	c0-10.23,0-20.45,0.02-30.68c0-0.43,0.17-1.15,0.44-1.25c0.91-0.34,1.23,0.14,1.23,1.1c-0.03,6.03-0.02,12.05-0.02,18.08
	C194.23,24.29,194.23,28.37,194.23,32.64z"/>
<path d="M181.73,18.4c-0.42,0-0.88,0-1.33,0c-4.75,0-9.51,0.03-14.26-0.02c-1.02-0.01-1.3,0.3-1.29,1.29c0.04,4.5,0.01,9,0.01,13.5
	c0,0.29,0,0.58,0,0.97c-0.53,0-0.97,0-1.51,0c0-5.7,0-11.4,0-17.23c0.43-0.03,0.84-0.08,1.24-0.08c5.35-0.01,10.7,0.02,16.04-0.03
	C181.79,16.79,182.21,17.13,181.73,18.4z"/>
<path d="M25.7,23.64c-1.77,3.58-6.68,5.65-10.9,4.6c-5-1.25-8.1-5.59-7.97-11.14c0.11-4.93,3.63-9.11,8.49-10.06
	c4.11-0.81,8.89,1.37,10.52,5.13c-0.63-0.27-1.09-0.31-1.27-0.57c-2.9-4.12-8.48-4.45-11.6-2.73c-3.96,2.18-5.87,6.66-4.72,11.44
	c1.43,5.94,7.55,8.92,13.01,6.2c1.24-0.62,2.2-1.81,3.31-2.72c0.27-0.22,0.61-0.36,0.92-0.54C25.56,23.37,25.63,23.5,25.7,23.64z"/>
<path d="M110.13,3.21c-1.7,0-3.39-0.04-5.09,0.01c-1.2,0.04-1.21-0.68-1.23-1.57c-0.02-0.93,0.2-1.41,1.26-1.4
	c3.77,0.04,7.55,0,11.32,0.04c0.37,0,0.93,0.19,1.05,0.45c0.13,0.29-0.05,0.82-0.25,1.15c-0.54,0.92-1.28,1.45-2.48,1.35
	C113.19,3.12,111.66,3.21,110.13,3.21z"/>
<path d="M185.09,1.06c-0.03,0.54-0.05,0.95-0.07,1.49c-0.58,0-1.08,0-1.57,0c-6.32,0-12.63-0.02-18.95,0.02
	c-1.13,0.01-1.47-0.37-1.09-1.51C170.57,1.06,177.74,1.06,185.09,1.06z"/>
</svg>
